<svg version="1" xmlns="http://www.w3.org/2000/svg" width="682.667" height="682.667" viewBox="0 0 512.000000 512.000000"><path d="M56.9 63.4c-26.7 7-46.5 26.3-54.5 53.1C.7 122.1.5 130.6.3 254 0 392.3-.1 388.6 4.1 400.5 12 422.8 32.5 442.3 54 448c2.5.7 5.4 1.5 6.5 1.8 1.1.4 87.6.8 192.3.9 183.6.3 190.6.3 199.5-1.6 14.8-3 26.8-9.5 37.6-20.2 8.4-8.4 16.3-21.6 19.1-31.9.7-2.5 1.5-5.4 1.8-6.5.4-1.1.8-60.4.9-131.7.3-115.7.1-130.6-1.3-137.5-3.9-19.3-14.3-35-30.9-46.9-7.5-5.3-13.5-8-24.5-11l-8.5-2.3h-381l-8.6 2.3zm390.8 29c15.7 4.2 26.5 14.3 31.7 29.7l2.5 7.4.1 125.2c0 90.1-.3 126.6-1.1 130.5-1.9 8.7-5.8 15.8-12.4 22.3-6.8 6.8-14.2 10.8-23 12.4-8.3 1.6-377.3 1-382.6-.5-10.9-3.3-23.2-13.3-27.6-22.4-5.6-11.7-5.3-3.4-5-141.9.1-70.2.5-128.3.8-129.1.3-.8.9-2.6 1.3-4 4.3-13.3 15.2-24.2 28.9-28.6l7.2-2.3h187c155.8-.1 187.9.1 192.2 1.3z"/><path d="M202.6 167.9c-1.5 1-3.7 3.2-4.7 4.7-1.8 2.8-1.9 6.2-1.9 83.3 0 78.3.1 80.4 2 83.6 2.9 4.7 7.5 6.8 14 6.4 5.3-.4 8-2 67.8-39.4 46.1-28.8 62.8-39.8 64.3-42.1 2.6-4.2 2.6-12.6 0-16.8-1.5-2.3-18.2-13.3-64.3-42.1l-62.3-39-6-.3c-4.6-.2-6.7.2-8.9 1.7z"/></svg>